<?xml version="1.0" encoding="UTF-8"?>
<!DOCTYPE svg PUBLIC "-//W3C//DTD SVG 1.1//EN" "http://www.w3.org/Graphics/SVG/1.1/DTD/svg11.dtd">
<svg xmlns="http://www.w3.org/2000/svg" version="1.1" width="256px" height="132px" style="shape-rendering:geometricPrecision; text-rendering:geometricPrecision; image-rendering:optimizeQuality; fill-rule:evenodd; clip-rule:evenodd" xmlns:xlink="http://www.w3.org/1999/xlink">
<g><path style="opacity:1.0" fill="#3b3d4b" d="M 110.5,-0.5 C 116.5,-0.5 122.5,-0.5 128.5,-0.5C 146.976,4.64562 158.31,16.6456 162.5,35.5C 174.574,33.637 184.241,37.637 191.5,47.5C 202.545,52.1455 213.879,52.8121 225.5,49.5C 234.387,49.8602 241.554,53.5268 247,60.5C 249.608,66.0534 252.441,71.3868 255.5,76.5C 255.5,78.5 255.5,80.5 255.5,82.5C 253.801,82.6602 252.134,82.4935 250.5,82C 238.487,73.0116 225.487,71.1783 211.5,76.5C 209.901,97.0973 198.901,108.431 178.5,110.5C 172.849,110.421 167.516,109.087 162.5,106.5C 157.571,119.436 148.571,127.77 135.5,131.5C 130.5,131.5 125.5,131.5 120.5,131.5C 110.09,129.026 102.256,123.026 97,113.5C 82.6827,120.255 70.016,117.922 59,106.5C 56.0627,102.626 54.2294,98.2931 53.5,93.5C 39.7787,96.189 27.1121,93.689 15.5,86C 10.298,80.6303 4.96467,75.4636 -0.5,70.5C -0.5,68.8333 -0.5,67.1667 -0.5,65.5C 0.264561,65.0766 1.09789,64.7432 2,64.5C 10.3081,67.5878 18.8081,68.2545 27.5,66.5C 24.5552,41.4466 35.5552,27.1133 60.5,23.5C 66.27,23.7537 71.77,25.087 77,27.5C 84.0707,13.2623 95.2374,3.92901 110.5,-0.5 Z"/></g>
<g><path style="opacity:1" fill="#f0f3e4" d="M 109.5,5.5 C 136.791,2.95812 153.125,15.1248 158.5,42C 171.118,38.327 181.118,41.9937 188.5,53C 192.392,54.6401 196.392,55.9735 200.5,57C 210.506,56.7607 220.506,56.4274 230.5,56C 238.474,58.6406 243.807,63.9739 246.5,72C 243.505,71.354 240.505,70.354 237.5,69C 228.377,66.7167 219.377,67.05 210.5,70C 208.413,70.7922 206.579,71.9588 205,73.5C 204.948,95.8861 193.781,106.053 171.5,104C 167.407,102.206 163.574,100.039 160,97.5C 158.739,97.7591 157.739,98.4258 157,99.5C 155.283,112.095 148.45,120.595 136.5,125C 126.151,127.192 116.817,125.192 108.5,119C 106.118,116.39 104.118,113.557 102.5,110.5C 104.439,107.385 106.606,104.385 109,101.5C 110.197,98.9109 111.197,96.2442 112,93.5C 112.333,86.5 112.667,79.5 113,72.5C 121.904,55.8048 133.904,53.1381 149,64.5C 157.196,76.3497 156.029,87.183 145.5,97C 142.052,98.9272 138.385,100.261 134.5,101C 133.62,102.356 133.286,103.856 133.5,105.5C 146.989,105.174 155.489,98.5078 159,85.5C 161.404,68.8029 154.571,57.9695 138.5,53C 124.243,51.5707 114.076,57.404 108,70.5C 107.667,77.5 107.333,84.5 107,91.5C 102.331,106.489 92.1646,112.989 76.5,111C 65.8149,106.977 59.4816,99.3106 57.5,88C 39.4003,91.981 24.067,87.3143 11.5,74C 19.2138,74.2487 26.5472,72.7487 33.5,69.5C 29.829,56.009 33.1623,44.509 43.5,35C 54.8153,27.67 66.1486,27.67 77.5,35C 86.1312,45.9521 85.1312,55.9521 74.5,65C 71.3522,66.6047 68.0189,67.6047 64.5,68C 61.4112,72.0581 62.4112,73.7247 67.5,73C 83.4387,68.9565 90.272,58.7898 88,42.5C 85.6977,38.5875 84.031,34.5875 83,30.5C 88.1952,18.1334 97.0286,9.80005 109.5,5.5 Z"/></g>
</svg>
